<?xml version="1.0" encoding="iso-8859-1"?>
<!-- Uploaded to: SVG Repo, www.svgrepo.com, Generator: SVG Repo Mixer Tools -->
<svg height="800px" width="800px" version="1.1" id="Layer_1" xmlns="http://www.w3.org/2000/svg" xmlns:xlink="http://www.w3.org/1999/xlink" 
	 viewBox="0 0 511.981 511.981" xml:space="preserve">
<g>
	<path style="fill:#FFCE54;" d="M223.991,197.321h-42.663c-5.89,0-10.671-4.781-10.671-10.671c0-5.891,4.781-10.656,10.671-10.656
		h42.663c5.89,0,10.663,4.766,10.663,10.656C234.655,192.54,229.882,197.321,223.991,197.321z"/>
	<path style="fill:#FFCE54;" d="M330.643,197.321h-42.654c-5.891,0-10.655-4.781-10.655-10.671c0-5.891,4.765-10.656,10.655-10.656
		h42.654c5.906,0,10.688,4.766,10.688,10.656S336.55,197.321,330.643,197.321z"/>
</g>
<g>
	<path style="fill:#4A89DC;" d="M191.992,154.651h-21.335H95.996c-38.545,0-68.599,17.655-84.622,49.701
		C0.32,226.461,0,248.241,0,250.647v181.336v21.344h21.335h21.328h21.335v-21.344V250.975c0.047-1.047,0.562-10.125,4.804-18.375
		c3.344-6.5,9.453-13.952,27.195-13.952h74.661h21.335v-21.327v-21.328L191.992,154.651L191.992,154.651z"/>
	<path style="fill:#4A89DC;" d="M500.605,204.352c-16.03-32.045-46.076-49.701-84.621-49.701h-74.653h-21.344v21.342v21.328v21.328
		h21.344h74.653c17.748,0,23.842,7.453,27.186,13.952c4.25,8.25,4.766,17.328,4.812,18.39v180.992v21.344h21.344h21.312h21.343
		v-21.344V250.647C511.98,248.241,511.668,226.461,500.605,204.352z"/>
</g>
<path style="fill:#5D9CEC;" d="M170.657,175.993H95.996c-38.506,0-56.896,20.609-65.537,37.89
	c-9.023,18.046-9.125,36.014-9.125,36.764v202.68h21.328V250.694c0-0.141,0.188-14.281,7.171-27.858
	c8.719-16.922,24.249-25.515,46.163-25.515h95.996v-21.328H170.657z"/>
<g>
	<path style="fill:#AC92EB;" d="M255.99,122.652c-5.891,0-10.664-4.766-10.664-10.656V69.325c0-5.89,4.773-10.67,10.664-10.67
		c5.891,0,10.664,4.78,10.664,10.67v42.671C266.654,117.887,261.881,122.652,255.99,122.652z"/>
	<path style="fill:#AC92EB;" d="M255.99,314.644c-5.891,0-10.664-4.75-10.664-10.655v-42.671c0-5.89,4.773-10.671,10.664-10.671
		c5.891,0,10.664,4.781,10.664,10.671v42.671C266.654,309.894,261.881,314.644,255.99,314.644z"/>
	<path style="fill:#AC92EB;" d="M218.671,132.667c-3.688,0-7.273-1.922-9.25-5.344l-21.335-36.951
		c-2.945-5.094-1.195-11.625,3.906-14.562c5.102-2.953,11.625-1.203,14.57,3.906l21.335,36.952
		c2.945,5.094,1.195,11.625-3.906,14.562C222.312,132.199,220.476,132.667,218.671,132.667z"/>
	<path style="fill:#AC92EB;" d="M314.675,298.958c-3.687,0-7.28-1.937-9.249-5.343l-21.343-36.968
		c-2.938-5.094-1.188-11.625,3.906-14.562c5.094-2.953,11.624-1.203,14.562,3.906l21.343,36.937
		c2.938,5.125,1.188,11.625-3.906,14.594C318.3,298.49,316.471,298.958,314.675,298.958z"/>
	<path style="fill:#AC92EB;" d="M197.313,298.927c-1.805,0-3.641-0.437-5.32-1.405c-5.102-2.969-6.852-9.469-3.906-14.594
		l21.335-36.937c2.945-5.109,9.468-6.859,14.57-3.906c5.101,2.938,6.851,9.469,3.906,14.562l-21.335,36.968
		C204.586,297.021,201,298.927,197.313,298.927z"/>
	<path style="fill:#AC92EB;" d="M293.302,132.667c-1.797,0-3.625-0.469-5.312-1.438c-5.094-2.938-6.844-9.468-3.906-14.562
		l21.343-36.952c2.938-5.109,9.468-6.859,14.562-3.906c5.094,2.938,6.844,9.469,3.906,14.562l-21.343,36.951
		C300.582,130.745,296.988,132.667,293.302,132.667z"/>
</g>
<path style="fill:#5D9CEC;" d="M481.512,213.883c-8.624-17.281-27.03-37.89-65.528-37.89h-95.997v21.328h95.997
	c21.904,0,37.436,8.593,46.154,25.515c7,13.577,7.172,27.717,7.188,27.858v202.633h21.312v-202.68
	C490.637,249.897,490.544,231.929,481.512,213.883z"/>
</svg>