<?xml version="1.0" encoding="iso-8859-1"?>
<!-- Uploaded to: SVG Repo, www.svgrepo.com, Generator: SVG Repo Mixer Tools -->
<svg fill="#000000" height="800px" width="800px" version="1.1" id="Layer_1" xmlns="http://www.w3.org/2000/svg" xmlns:xlink="http://www.w3.org/1999/xlink" 
	 viewBox="0 0 512 512" xml:space="preserve">
<g>
	<g>
		<path d="M471.019,176.699H40.981c-22.011,0-39.917,17.906-39.917,39.917v255.468C1.064,494.094,18.971,512,40.981,512h44.707
			c4.409,0,7.983-3.573,7.983-7.983c0-4.41-3.574-7.983-7.983-7.983H40.981c-13.207,0-23.95-10.745-23.95-23.95V216.615
			c0-13.206,10.743-23.95,23.95-23.95h430.037c13.207,0,23.95,10.745,23.95,23.95v255.468c0,13.206-10.743,23.95-23.95,23.95
			H136.782c-4.409,0-7.983,3.573-7.983,7.983c0,4.41,3.574,7.983,7.983,7.983h334.237c22.011,0,39.917-17.906,39.917-39.917V216.615
			C510.936,194.605,493.029,176.699,471.019,176.699z"/>
	</g>
</g>
<g>
	<g>
		<path d="M471.019,208.632h-61.738c-4.409,0-7.983,3.573-7.983,7.983c0,4.41,3.574,7.983,7.983,7.983h53.755V464.1H48.965V224.599
			h309.222c4.409,0,7.983-3.573,7.983-7.983c0-4.41-3.574-7.983-7.983-7.983H40.981c-4.409,0-7.983,3.573-7.983,7.983v255.468
			c0,4.41,3.574,7.983,7.983,7.983h430.037c4.409,0,7.983-3.573,7.983-7.983V216.615
			C479.002,212.205,475.428,208.632,471.019,208.632z"/>
	</g>
</g>
<g>
	<g>
		<path d="M198.52,257.597h-89.414c-22.011,0-39.917,17.906-39.917,39.917v93.672c0,22.011,17.906,39.917,39.917,39.917h89.414
			c22.011,0,39.917-17.906,39.917-39.917v-93.672C238.437,275.503,220.53,257.597,198.52,257.597z M222.47,391.185
			c0,13.206-10.743,23.95-23.95,23.95h-89.414c-13.207,0-23.95-10.745-23.95-23.95v-93.672c0-13.206,10.743-23.95,23.95-23.95
			h89.414c13.207,0,23.95,10.745,23.95,23.95V391.185z"/>
	</g>
</g>
<g>
	<g>
		<path d="M134.653,287.401h-23.418c-4.409,0-7.983,3.573-7.983,7.983v34.062c0,4.41,3.574,7.983,7.983,7.983h23.418
			c4.409,0,7.983-3.573,7.983-7.983v-34.062C142.636,290.975,139.062,287.401,134.653,287.401z M126.669,321.464h-7.451v-18.096
			h7.451V321.464z"/>
	</g>
</g>
<g>
	<g>
		<path d="M196.391,287.401h-23.418c-4.409,0-7.983,3.573-7.983,7.983v34.062c0,4.41,3.574,7.983,7.983,7.983h23.418
			c4.409,0,7.983-3.573,7.983-7.983v-34.062C204.374,290.975,200.8,287.401,196.391,287.401z M188.407,321.464h-7.451v-18.096h7.451
			V321.464z"/>
	</g>
</g>
<g>
	<g>
		<path d="M165.522,351.268h-23.418c-4.409,0-7.983,3.573-7.983,7.983v34.062c0,4.41,3.574,7.983,7.983,7.983h23.418
			c4.409,0,7.983-3.573,7.983-7.983v-34.062C173.505,354.842,169.931,351.268,165.522,351.268z M157.538,385.331h-7.451v-18.096
			h7.451V385.331z"/>
	</g>
</g>
<g>
	<g>
		<path d="M402.894,257.597H313.48c-22.011,0-39.917,17.906-39.917,39.917v93.672c0,22.011,17.906,39.917,39.917,39.917h89.414
			c22.011,0,39.917-17.906,39.917-39.917v-93.672C442.811,275.503,424.905,257.597,402.894,257.597z M426.844,391.185
			c0,13.206-10.743,23.95-23.95,23.95H313.48c-13.207,0-23.95-10.745-23.95-23.95v-93.672c0-13.206,10.743-23.95,23.95-23.95h89.414
			c13.207,0,23.95,10.745,23.95,23.95V391.185z"/>
	</g>
</g>
<g>
	<g>
		<path d="M400.765,287.401h-23.418c-4.409,0-7.983,3.573-7.983,7.983v34.062c0,4.41,3.574,7.983,7.983,7.983h23.418
			c4.409,0,7.983-3.573,7.983-7.983v-34.062C408.748,290.975,405.174,287.401,400.765,287.401z M392.782,321.464h-7.451v-18.096
			h7.451V321.464z"/>
	</g>
</g>
<g>
	<g>
		<path d="M339.027,287.401h-23.418c-4.409,0-7.983,3.573-7.983,7.983v34.062c0,4.41,3.574,7.983,7.983,7.983h23.418
			c4.409,0,7.983-3.573,7.983-7.983v-34.062C347.01,290.975,343.436,287.401,339.027,287.401z M331.044,321.464h-7.451v-18.096
			h7.451V321.464z"/>
	</g>
</g>
<g>
	<g>
		<path d="M369.896,351.268h-23.418c-4.409,0-7.983,3.573-7.983,7.983v34.062c0,4.41,3.574,7.983,7.983,7.983h23.418
			c4.409,0,7.983-3.573,7.983-7.983v-34.062C377.879,354.842,374.305,351.268,369.896,351.268z M361.913,385.331h-7.451v-18.096
			h7.451V385.331z"/>
	</g>
</g>
<g>
	<g>
		<path d="M471.019,83.027h-27.676c-18.488,0-33.53,15.042-33.53,33.53v19.16c0,9.684-7.879,17.563-17.563,17.563
			c-9.684,0-17.563-7.879-17.563-17.563V33.53c0-18.488-15.042-33.53-33.53-33.53s-33.53,15.042-33.53,33.53v31.933
			c0,9.684-7.879,17.563-17.563,17.563h-45.239v-23.95c0-22.011-17.906-39.917-39.917-39.917H96.333
			c-4.409,0-7.983,3.573-7.983,7.983v13.306H40.981c-4.409,0-7.983,3.573-7.983,7.983s3.574,7.983,7.983,7.983h47.368v22.353H60.141
			c-4.409,0-7.983,3.573-7.983,7.983c0,4.41,3.574,7.983,7.983,7.983h28.208v22.353H40.981c-4.409,0-7.983,3.573-7.983,7.983
			c0,4.41,3.574,7.983,7.983,7.983h47.368v13.306c0,4.41,3.574,7.983,7.983,7.983h108.574c22.011,0,39.917-17.906,39.917-39.917
			V98.994h45.239c18.488,0,33.53-15.042,33.53-33.53V33.53c0-9.684,7.879-17.563,17.563-17.563c9.684,0,17.563,7.879,17.563,17.563
			v102.187c0,18.488,15.042,33.53,33.53,33.53s33.53-15.042,33.53-33.53v-19.16c0-9.684,7.879-17.563,17.563-17.563h27.676
			c4.409,0,7.983-3.573,7.983-7.983C479.002,86.6,475.428,83.027,471.019,83.027z M228.857,114.428
			c0,13.206-10.744,23.95-23.95,23.95h-100.59V35.127h100.59c13.207,0,23.95,10.745,23.95,23.95V114.428z"/>
	</g>
</g>
<g>
	<g>
		<path d="M186.867,86.166c-1.086-3-3.853-5.067-7.038-5.254l-18.445-1.085l21.491-21.491c3.118-3.119,3.118-8.173,0-11.291
			c-3.118-3.117-8.173-3.117-11.29,0l-34.062,34.062c-2.223,2.224-2.935,5.544-1.817,8.483c1.117,2.938,3.854,4.947,6.993,5.132
			l17.651,1.039l-20.513,19.229c-3.217,3.016-3.38,8.067-0.364,11.285c1.572,1.675,3.696,2.523,5.826,2.523
			c1.956,0,3.918-0.715,5.458-2.159l34.062-31.933C187.148,92.524,187.953,89.166,186.867,86.166z"/>
	</g>
</g>
</svg>