<!DOCTYPE svg PUBLIC "-//W3C//DTD SVG 1.1//EN" "http://www.w3.org/Graphics/SVG/1.1/DTD/svg11.dtd">
<!-- Uploaded to: SVG Repo, www.svgrepo.com, Transformed by: SVG Repo Mixer Tools -->
<svg width="800px" height="800px" viewBox="0 0 24 24" fill="none" xmlns="http://www.w3.org/2000/svg">
<g id="SVGRepo_bgCarrier" stroke-width="0"/>
<g id="SVGRepo_tracerCarrier" stroke-linecap="round" stroke-linejoin="round"/>
<g id="SVGRepo_iconCarrier"> <path d="M16.2451 8.29289C16.6356 7.90237 17.2688 7.90237 17.6593 8.29289C18.0498 8.68342 18.0498 9.31658 17.6593 9.70711L11.9043 15.4611C11.1232 16.242 9.85696 16.242 9.07596 15.461L7.29288 13.6779C6.90235 13.2874 6.90235 12.6542 7.29288 12.2637C7.6834 11.8732 8.31657 11.8732 8.70709 12.2637L9.78359 13.3402C10.1741 13.7307 10.8073 13.7307 11.1978 13.3402L16.2451 8.29289Z" fill="#ff0000"/> <path fill-rule="evenodd" clip-rule="evenodd" d="M12 1.00195C11.0268 1.00195 10.3021 1.39456 9.68627 1.72824C9.54287 1.80594 9.40536 1.88044 9.27198 1.94605C8.49696 2.32729 7.32256 2.78014 4.93538 2.94144C3.36833 3.04732 1.97417 4.32298 2.03666 6.03782C2.13944 8.85853 2.46666 11.7444 3.12474 14.1763C3.76867 16.5559 4.78826 18.7274 6.44528 19.8321C8.02992 20.8885 9.33329 21.8042 10.2053 22.4293C11.276 23.1969 12.724 23.1969 13.7947 22.4293C14.6667 21.8042 15.97 20.8885 17.5547 19.8321C19.2117 18.7274 20.2313 16.5559 20.8752 14.1763C21.5333 11.7445 21.8605 8.8586 21.9633 6.03782C22.0258 4.32298 20.6316 3.04732 19.0646 2.94144C16.6774 2.78014 15.503 2.32729 14.728 1.94605C14.5946 1.88045 14.4571 1.80596 14.3138 1.72828C13.6979 1.39459 12.9732 1.00195 12 1.00195ZM5.07021 4.93689C7.70274 4.75901 9.13306 4.24326 10.1548 3.74068C10.4467 3.5971 10.6724 3.47746 10.8577 3.37923C11.3647 3.11045 11.5694 3.00195 12 3.00195C12.4305 3.00195 12.6352 3.11045 13.1423 3.37923C13.3276 3.47746 13.5533 3.5971 13.8452 3.74068C14.8669 4.24326 16.2972 4.75901 18.9298 4.93689C19.5668 4.97993 19.9826 5.47217 19.9646 5.965C19.865 8.70066 19.5487 11.4218 18.9447 13.6539C18.3265 15.9383 17.4653 17.4879 16.4453 18.1679C14.8385 19.2392 13.5162 20.1681 12.6294 20.8038C12.2553 21.072 11.7447 21.072 11.3705 20.8038C10.4837 20.1681 9.1615 19.2392 7.55469 18.1679C6.53465 17.4879 5.67349 15.9383 5.0553 13.6538C4.45127 11.4217 4.13502 8.70059 4.03533 5.965C4.01738 5.47217 4.43314 4.97993 5.07021 4.93689Z" fill="#ff0000"/> </g>
</svg>